HIERARCHY
ROOT Hips
{
	OFFSET 0.000000 0.000000 0.000000 
	CHANNELS 6 Xposition Yposition Zposition Zrotation Yrotation Xrotation
	JOINT LeftUpLeg
	{
		OFFSET 1.363060 -1.794630 0.839290 
		CHANNELS 3 Zrotation Yrotation Xrotation
		JOINT LeftLeg
		{
			OFFSET 2.448110 -6.726130 0.000000 
			CHANNELS 3 Zrotation Yrotation Xrotation
			JOINT LeftFoot
			{
				OFFSET 2.562200 -7.039590 0.000000 
				CHANNELS 3 Zrotation Yrotation Xrotation
				JOINT LeftToeBase
				{
					OFFSET 0.157640 -0.433110 2.322550 
					CHANNELS 3 Zrotation Yrotation Xrotation
					End Site
					{
						OFFSET 0.000000 0.000000 0.000000 
					}
				}
			}
		}
	}
	JOINT RightUpLeg
	{
		OFFSET -1.305520 -1.794630 0.839290 
		CHANNELS 3 Zrotation Yrotation Xrotation
		JOINT RightLeg
		{
			OFFSET -2.542530 -6.985550 0.000000 
			CHANNELS 3 Zrotation Yrotation Xrotation
			JOINT RightFoot
			{
				OFFSET -2.568260 -7.056230 0.000000 
				CHANNELS 3 Zrotation Yrotation Xrotation
				JOINT RightToeBase
				{
					OFFSET -0.164730 -0.452590 2.363150 
					CHANNELS 3 Zrotation Yrotation Xrotation
					End Site
					{
						OFFSET 0.000000 0.000000 0.000000 
					}
				}
			}
		}
	}
	JOINT Spine
	{
		OFFSET 0.028270 2.035590 -0.193380 
		CHANNELS 3 Zrotation Yrotation Xrotation
		JOINT Spine1
		{
			OFFSET 0.056720 2.048850 -0.042750 
			CHANNELS 3 Zrotation Yrotation Xrotation
			JOINT Neck1
			{
				OFFSET -0.054170 1.746240 0.172020 
				CHANNELS 3 Zrotation Yrotation Xrotation
				JOINT Head
				{
					OFFSET 0.104070 1.761360 -0.123970 
					CHANNELS 3 Zrotation Yrotation Xrotation
					End Site
					{
						OFFSET 0.000000 0.000000 0.000000 
					}
				}
			}
			JOINT LeftArm
			{
				OFFSET 3.362410 1.200890 -0.311210 
				CHANNELS 3 Zrotation Yrotation Xrotation
				JOINT LeftForeArm
				{
					OFFSET 4.983000 -0.000000 -0.000000 
					CHANNELS 3 Zrotation Yrotation Xrotation
					JOINT LeftHand
					{
						OFFSET 3.483560 -0.000000 -0.000000 
						CHANNELS 3 Zrotation Yrotation Xrotation
						JOINT LeftHandIndex1
						{
							OFFSET 0.715260 -0.000000 -0.000000 
							CHANNELS 3 Zrotation Yrotation Xrotation
							End Site
							{
								OFFSET 0.000000 0.000000 0.000000 
							}
						}
					}
				}
			}
			JOINT RightArm
			{
				OFFSET -3.136600 1.374050 -0.404650 
				CHANNELS 3 Zrotation Yrotation Xrotation
				JOINT RightForeArm
				{
					OFFSET -5.241900 -0.000000 -0.000000 
					CHANNELS 3 Zrotation Yrotation Xrotation
					JOINT RightHand
					{
						OFFSET -3.444170 -0.000000 -0.000000 
						CHANNELS 3 Zrotation Yrotation Xrotation
						JOINT RightHandIndex1
						{
							OFFSET -0.622530 -0.000000 -0.000000 
							CHANNELS 3 Zrotation Yrotation Xrotation
							End Site
							{
								OFFSET 0.000000 0.000000 0.000000 
							}
						}
					}
				}
			}
		}
	}
}
MOTION
Frames: 13
Frame Time: 0.041667
53.033808 17.158717 19.311276 -175.906365 -43.300856 176.659879 -16.066410 9.116885 -6.565822 0.650938 8.638843 23.343255 0.599588 0.290290 -8.258726 0.040100 -1.292400 -3.553800 25.730843 2.735333 -6.387261 -1.390605 -11.329119 31.141229 0.870810 -8.163112 -17.089144 -0.078100 -1.802300 4.959700 1.243853 -1.274471 -1.263945 -1.849837 -0.561368 3.623502 5.904941 -0.412407 7.852275 -0.320000 0.041200 1.439200 -78.202677 3.206800 29.549984 10.960064 -24.875892 -3.930669 -0.836614 -1.612761 -22.331608 -7.125000 0.000000 0.000000 75.104933 -3.009080 29.856214 -10.990188 24.680365 -3.683596 1.592398 0.763656 -0.124880 7.125000 0.000000 0.000000 
53.034667 17.158717 19.310417 -175.906409 -43.309179 176.685373 -16.063031 9.120500 -6.594156 0.650913 8.640264 23.345877 0.603407 0.271054 -8.243850 0.042600 -1.332800 -3.664900 25.735363 2.752825 -6.406212 -1.388680 -11.330173 31.138310 0.854892 -8.119056 -17.117120 -0.081800 -1.845400 5.078600 1.240842 -1.258913 -1.264692 -1.861853 -0.553013 3.633164 5.907696 -0.419977 7.835094 -0.322200 0.036400 1.432100 -78.174123 3.217819 29.590395 10.908418 -24.821892 -3.911821 -0.820607 -1.645962 -22.313900 -7.125000 0.000000 0.000000 75.137283 -3.018204 29.819328 -10.976837 24.665214 -3.677830 1.592793 0.750217 -0.141281 7.125000 0.000000 0.000000 
53.033164 17.159039 19.308806 -175.908604 -43.293320 176.705805 -16.062118 9.156609 -6.611653 0.650419 8.638017 23.339509 0.604329 0.266112 -8.237532 0.042500 -1.331000 -3.660000 25.735769 2.771711 -6.412605 -1.389134 -11.333227 31.144093 0.847507 -8.098039 -17.128012 -0.083500 -1.864300 5.130800 1.241773 -1.272462 -1.260389 -1.849600 -0.558889 3.695488 5.943340 -0.371830 7.856184 -0.276100 0.062300 1.452400 -78.219757 3.239991 29.490616 10.846407 -24.751552 -3.886263 -0.818003 -1.642510 -22.225959 -7.125000 0.000000 0.000000 75.131041 -2.988393 29.807116 -10.937116 24.623327 -3.661625 1.593193 0.742481 -0.123121 7.125000 0.000000 0.000000 
53.030908 17.158932 19.307087 -175.912287 -43.294293 176.727476 -16.071157 9.124617 -6.609471 0.648422 8.636678 23.333429 0.604309 0.265363 -8.232320 0.041400 -1.313400 -3.611400 25.726134 2.775029 -6.424101 -1.389999 -11.335568 31.149431 0.840705 -8.074905 -17.126798 -0.084800 -1.878700 5.170600 1.238866 -1.267210 -1.261191 -1.867818 -0.555224 3.717388 5.960949 -0.362613 7.854415 -0.255500 0.067000 1.452900 -78.093714 3.199303 29.871534 10.678944 -24.558785 -3.798988 -0.842999 -1.629740 -22.560739 -7.125000 0.000000 0.000000 75.154591 -3.011328 29.785009 -10.928617 24.619852 -3.660418 1.601750 0.750259 -0.093383 7.125000 0.000000 0.000000 
53.029512 17.159039 19.305047 -175.915315 -43.298340 176.750302 -16.072240 9.128824 -6.623012 0.647124 8.635091 23.327613 0.606855 0.252421 -8.220084 0.041500 -1.314300 -3.614000 25.725031 2.783164 -6.436930 -1.390643 -11.338468 31.155206 0.834841 -8.060332 -17.142418 -0.085500 -1.886300 5.191500 1.237924 -1.271540 -1.259764 -1.874075 -0.556781 3.755301 5.970568 -0.350519 7.858870 -0.240500 0.073400 1.456800 -77.992596 3.165625 30.186860 10.532257 -24.392298 -3.726066 -0.853215 -1.631405 -22.842685 -7.125000 0.000000 0.000000 75.167893 -3.015400 29.768142 -10.908867 24.602240 -3.653149 1.601592 0.750510 -0.071916 7.125000 0.000000 0.000000 
53.028116 17.159147 19.303006 -175.919594 -43.303018 176.776169 -16.075458 9.131852 -6.638006 0.645832 8.633779 23.322562 0.608437 0.243393 -8.207274 0.041400 -1.313800 -3.612800 25.722418 2.790501 -6.451482 -1.391212 -11.341377 31.160893 0.831812 -8.054696 -17.156662 -0.085300 -1.884100 5.185500 1.237519 -1.277485 -1.258438 -1.878620 -0.559353 3.793204 5.971587 -0.343387 7.865042 -0.232900 0.077100 1.460600 -77.881381 3.129127 30.546504 10.377145 -24.215861 -3.648750 -0.864740 -1.631701 -23.171855 -7.125000 0.000000 0.000000 75.177670 -3.021713 29.752621 -10.889523 24.585017 -3.645847 1.598961 0.752010 -0.043606 7.125000 0.000000 0.000000 
53.026934 17.159469 19.300966 -175.926353 -43.310239 176.806835 -16.080374 9.130449 -6.659358 0.644891 8.633902 23.320461 0.609821 0.234824 -8.193275 0.041400 -1.313800 -3.612500 25.718286 2.796764 -6.471970 -1.391269 -11.343631 31.164012 0.831777 -8.058044 -17.167374 -0.084500 -1.875500 5.161800 1.237841 -1.285599 -1.257758 -1.878851 -0.563145 3.826368 5.966590 -0.339415 7.868176 -0.230500 0.078900 1.460300 -77.784616 3.102630 30.873779 10.232213 -24.051337 -3.577557 -0.874668 -1.633189 -23.478037 -7.125000 0.000000 0.000000 75.183429 -3.029345 29.738112 -10.869270 24.566218 -3.638098 1.595177 0.753219 -0.010250 7.125000 0.000000 0.000000 
53.026075 17.159791 19.299354 -175.933609 -43.313390 176.841408 -16.087285 9.129703 -6.685031 0.644051 8.634647 23.319552 0.611431 0.226147 -8.180764 0.040700 -1.301800 -3.579700 25.712457 2.805865 -6.496158 -1.391172 -11.345862 31.166590 0.831790 -8.059748 -17.173576 -0.084000 -1.870000 5.146500 1.239118 -1.294302 -1.257615 -1.874205 -0.567360 3.856171 5.953922 -0.338010 7.872607 -0.234900 0.079400 1.461600 -77.727150 3.095782 31.094292 10.109320 -23.912247 -3.519295 -0.880825 -1.636036 -23.692322 -7.125000 0.000000 0.000000 75.182021 -3.036576 29.730325 -10.849724 24.547337 -3.630299 1.591489 0.754437 0.020057 7.125000 0.000000 0.000000 
53.025216 17.160221 19.298280 -175.942724 -43.309874 176.877773 -16.097468 9.118404 -6.708239 0.642893 8.635394 23.318304 0.611160 0.226144 -8.172349 0.039000 -1.274600 -3.504600 25.704343 2.818365 -6.523028 -1.391052 -11.348391 31.168992 0.834128 -8.066982 -17.171569 -0.083400 -1.863100 5.127500 1.239787 -1.296701 -1.257569 -1.872231 -0.568273 3.882524 5.942742 -0.337654 7.873922 -0.239100 0.079200 1.461800 -77.698954 3.100592 31.214238 10.005945 -23.794679 -3.472523 -0.884073 -1.639507 -23.810375 -7.125000 0.000000 0.000000 75.182983 -3.043310 29.712752 -10.829276 24.526729 -3.622275 1.588680 0.753688 0.053480 7.125000 0.000000 0.000000 
53.024679 17.160758 19.297636 -175.952734 -43.298158 176.913752 -16.108498 9.110029 -6.731667 0.641762 8.635714 23.316270 0.610311 0.228919 -8.165244 0.036900 -1.239900 -3.409200 25.694907 2.834738 -6.550867 -1.391031 -11.351290 31.172246 0.834147 -8.064065 -17.162888 -0.083700 -1.865700 5.134600 1.239882 -1.292104 -1.258208 -1.872928 -0.565607 3.901209 5.929148 -0.341470 7.875296 -0.246900 0.077100 1.463900 -77.712840 3.127175 31.191336 9.928411 -23.706062 -3.440209 -0.885620 -1.640348 -23.790271 -7.125000 0.000000 0.000000 75.187943 -3.052844 29.689525 -10.810706 24.507456 -3.615267 1.588993 0.752706 0.079083 7.125000 0.000000 0.000000 
53.024035 17.161187 19.297421 -175.961539 -43.281614 176.948710 -16.121145 9.094475 -6.752068 0.640250 8.635701 23.312700 0.608396 0.237210 -8.162714 0.034200 -1.194600 -3.284400 25.683962 2.851735 -6.581126 -1.391339 -11.354687 31.176711 0.833496 -8.057801 -17.149487 -0.083900 -1.868900 5.143400 1.239530 -1.284021 -1.258522 -1.878528 -0.561011 3.919951 5.913285 -0.347780 7.875006 -0.257300 0.073400 1.464400 -77.728414 3.150338 31.157372 9.851408 -23.617147 -3.408464 -0.886361 -1.641102 -23.763435 -7.125000 0.000000 0.000000 75.192888 -3.064714 29.667997 -10.794533 24.491510 -3.609342 1.590084 0.749419 0.093792 7.125000 0.000000 0.000000 
53.023605 17.161617 19.297421 -175.971069 -43.263249 176.982805 -16.133035 9.078516 -6.770433 0.638615 8.635113 23.307641 0.605346 0.249921 -8.158813 0.032000 -1.154400 -3.173700 25.673873 2.871592 -6.609605 -1.391779 -11.358562 31.182158 0.831508 -8.047934 -17.139022 -0.084500 -1.874600 5.159300 1.238760 -1.273431 -1.258275 -1.887548 -0.554995 3.939738 5.896183 -0.357147 7.873928 -0.269800 0.068300 1.463900 -77.744039 3.171553 31.114018 9.776769 -23.530474 -3.378136 -0.886657 -1.641809 -23.728113 -7.125000 0.000000 0.000000 75.201097 -3.078364 29.650108 -10.782953 24.481190 -3.605299 1.591897 0.746718 0.097121 7.125000 0.000000 0.000000 
53.023068 17.162046 19.297314 -175.979470 -43.245567 177.018860 -16.145310 9.067041 -6.791396 0.636824 8.633858 23.301055 0.602695 0.260858 -8.152981 0.030300 -1.123100 -3.087600 25.662770 2.889322 -6.640555 -1.392021 -11.362282 31.187060 0.830185 -8.039937 -17.127291 -0.084500 -1.874700 5.159600 1.237758 -1.262861 -1.257939 -1.899366 -0.548859 3.959028 5.878306 -0.368542 7.870739 -0.283000 0.061900 1.460100 -77.762413 3.194290 31.057534 9.703442 -23.445178 -3.349040 -0.885366 -1.644069 -23.684513 -7.125000 0.000000 0.000000 75.211897 -3.093054 29.628627 -10.770144 24.469844 -3.600714 1.593428 0.742839 0.098785 7.125000 0.000000 0.000000 
